<svg xmlns="http://www.w3.org/2000/svg" width="80" height="80" viewBox="0 0 80 80">
  <g id="ai" transform="translate(-3350 508)">
    <rect id="Rectangle_6" data-name="Rectangle 6" width="80" height="80" rx="16" transform="translate(3350 -508)" fill="#300"/>
    <g id="vlpe" transform="translate(3315.765 -541.137)">
      <g id="vlpf" transform="translate(49.29 51.9)">
        <path id="Path_17" data-name="Path 17" d="M74.255,89.625H60.334l-2.844,8.794a.655.655,0,0,1-.711.524H49.743c-.412,0-.524-.225-.412-.674l12.05-34.69c.112-.374.225-.786.374-1.235a13.071,13.071,0,0,0,.225-2.432.371.371,0,0,1,.3-.412h9.692c.3,0,.449.112.486.3L86.117,98.344c.112.412,0,.6-.374.6H77.922a.565.565,0,0,1-.6-.412l-3.069-8.906ZM62.5,82.028h9.505c-.225-.786-.524-1.721-.861-2.694-.337-1.01-.674-2.1-1.01-3.218-.374-1.16-.711-2.283-1.085-3.443s-.711-2.245-1.01-3.331c-.3-1.048-.561-2.021-.823-2.919h-.075a45.948,45.948,0,0,1-1.272,4.827c-.561,1.8-1.123,3.667-1.721,5.538-.524,1.909-1.085,3.667-1.647,5.239Z" transform="translate(-49.29 -56.656)" fill="#ff9a00"/>
        <path id="Path_18" data-name="Path 18" d="M162.3,61.293a4.631,4.631,0,0,1-3.331-1.31A4.861,4.861,0,0,1,157.7,56.54a4.4,4.4,0,0,1,1.347-3.331,4.792,4.792,0,0,1,3.331-1.31,4.481,4.481,0,0,1,3.405,1.31,5.145,5.145,0,0,1-.075,6.773A4.4,4.4,0,0,1,162.3,61.293Zm-4.191,32.482V64.96c0-.374.15-.524.486-.524H166c.337,0,.487.187.487.524V93.775c0,.412-.15.6-.487.6h-7.335A.524.524,0,0,1,158.108,93.775Z" transform="translate(-117.127 -51.9)" fill="#ff9a00"/>
      </g>
    </g>
  </g>
</svg>
