<svg xmlns="http://www.w3.org/2000/svg" width="80" height="80" viewBox="0 0 80 80">
  <g id="css" transform="translate(-3448 482)">
    <rect id="Rectangle_7" data-name="Rectangle 7" width="80" height="80" rx="16" transform="translate(3448 -482)" fill="#264de4"/>
    <g id="Group_3" data-name="Group 3" transform="translate(3321.868 -646.305)">
      <path id="polygon2993" d="M150.31,268.217l.868,9.689h21.683v-9.689Z" transform="translate(-6.433 -72.3)" fill="#ebebeb"/>
      <path id="polygon2997" d="M177.659,346.963l-.042.011-10.791-2.914-.69-7.728h-9.727l1.357,15.214,19.848,5.51.045-.012Z" transform="translate(-11.231 -125.882)" fill="#ebebeb"/>
      <g id="Group_3-2" data-name="Group 3" transform="translate(142.132 176.305)">
        <path id="polygon2995" d="M142.132,176.3l.881,9.69h23.416V176.3h-24.3Z" transform="translate(-142.132 -176.305)" fill="#ebebeb"/>
        <path id="polygon3005" d="M278.366,195.917l1.749-19.612H255.843v9.69H269.5l-.882,9.922H255.843v9.689h11.931l-1.125,12.566-10.807,2.917V231.17l19.864-5.505.146-1.637,2.277-25.509Z" transform="translate(-231.58 -176.305)" fill="#fff"/>
      </g>
    </g>
  </g>
</svg>
