<svg xmlns="http://www.w3.org/2000/svg" width="80" height="80" viewBox="0 0 80 80">
  <g id="js" transform="translate(-3055 508)">
    <rect id="Rectangle_3" data-name="Rectangle 3" width="80" height="80" rx="16" transform="translate(3055 -508)" fill="#f7df1e"/>
    <path id="Path_5" data-name="Path 5" d="M191.569,306.486c1.267,2.069,2.915,3.589,5.83,3.589,2.449,0,4.013-1.224,4.013-2.915,0-2.027-1.607-2.744-4.3-3.923l-1.478-.634c-4.265-1.817-7.1-4.093-7.1-8.905,0-4.433,3.377-7.807,8.656-7.807,3.758,0,6.459,1.308,8.406,4.732l-4.6,2.955c-1.013-1.817-2.106-2.533-3.8-2.533a2.571,2.571,0,0,0-2.828,2.533c0,1.773,1.1,2.491,3.634,3.589l1.478.633c5.022,2.153,7.857,4.349,7.857,9.285,0,5.321-4.18,8.236-9.794,8.236-5.489,0-9.035-2.616-10.77-6.044ZM170.691,307c.928,1.647,1.773,3.04,3.8,3.04,1.942,0,3.167-.76,3.167-3.714v-20.1h5.91V306.4c0,6.12-3.588,8.905-8.825,8.905a9.175,9.175,0,0,1-8.866-5.4Z" transform="translate(2915.395 -756.605)"/>
  </g>
</svg>
