<svg xmlns="http://www.w3.org/2000/svg" width="80" height="80" viewBox="0 0 80 80">
  <g id="psd" transform="translate(-3252 508)">
    <rect id="Rectangle_5" data-name="Rectangle 5" width="80" height="80" rx="16" transform="translate(3252 -508)" fill="#001e36"/>
    <g id="Outlined_Mnemonics_Logos" transform="translate(3224 -532.5)">
      <g id="Ps" transform="translate(41 44.5)">
        <path id="Path_14" data-name="Path 14" d="M54,98.608V60.136c0-.262.112-.411.374-.411.636,0,1.234,0,2.094-.037.9-.037,1.832-.037,2.842-.075s2.094-.037,3.253-.075,2.281-.037,3.4-.037a21.984,21.984,0,0,1,7.7,1.159,13.352,13.352,0,0,1,5.01,3.066,11.9,11.9,0,0,1,2.729,4.262,14.311,14.311,0,0,1,.86,4.861,13.367,13.367,0,0,1-2.243,7.964A12.809,12.809,0,0,1,74,85.373a24.231,24.231,0,0,1-8.412,1.271c-.9,0-1.5,0-1.869-.037s-.9-.037-1.608-.037v12a.465.465,0,0,1-.411.523H54.449C54.15,99.094,54,98.945,54,98.608ZM62.151,66.94V79.5c.523.037,1.009.075,1.458.075H65.59a13.966,13.966,0,0,0,4.3-.673,6.43,6.43,0,0,0,3.066-1.982,5.777,5.777,0,0,0,1.159-3.851,6.154,6.154,0,0,0-.86-3.328,5.422,5.422,0,0,0-2.617-2.131,10.971,10.971,0,0,0-4.412-.748c-.972,0-1.832,0-2.542.037a8.56,8.56,0,0,0-1.533.037Z" transform="translate(-54 -59.5)" fill="#31a8ff"/>
        <path id="Path_15" data-name="Path 15" d="M159.622,92.75a13.233,13.233,0,0,0-3.589-1.271,19.709,19.709,0,0,0-4.188-.486,7.528,7.528,0,0,0-2.243.262,1.92,1.92,0,0,0-1.159.748,1.982,1.982,0,0,0-.3,1.009,1.663,1.663,0,0,0,.374.972,4.219,4.219,0,0,0,1.271,1.009c.86.449,1.757.86,2.655,1.234a27.08,27.08,0,0,1,5.758,2.729,8.7,8.7,0,0,1,2.954,3.1,8.071,8.071,0,0,1,.86,3.851,8.7,8.7,0,0,1-1.458,4.973,9.369,9.369,0,0,1-4.187,3.328,17.131,17.131,0,0,1-6.767,1.2,25.755,25.755,0,0,1-5.085-.486,15.082,15.082,0,0,1-3.814-1.2.735.735,0,0,1-.411-.71v-6.506a.406.406,0,0,1,.15-.336.285.285,0,0,1,.337.037,16,16,0,0,0,4.636,1.832,17.406,17.406,0,0,0,4.412.561,7.136,7.136,0,0,0,3.1-.523,1.737,1.737,0,0,0,1.009-1.57,1.981,1.981,0,0,0-.9-1.5,15.857,15.857,0,0,0-3.664-1.757,22.876,22.876,0,0,1-5.309-2.692,9.681,9.681,0,0,1-2.842-3.178,8.022,8.022,0,0,1-.86-3.814,8.794,8.794,0,0,1,1.271-4.524,9.216,9.216,0,0,1,3.926-3.44,14.5,14.5,0,0,1,6.618-1.309,32.233,32.233,0,0,1,4.636.336,13.155,13.155,0,0,1,3.215.86.657.657,0,0,1,.374.336,1.877,1.877,0,0,1,.075.449v6.094a.46.46,0,0,1-.187.374A1,1,0,0,1,159.622,92.75Z" transform="translate(-108.026 -75.028)" fill="#31a8ff"/>
      </g>
    </g>
  </g>
</svg>
