<svg xmlns="http://www.w3.org/2000/svg" width="80" height="80" viewBox="0 0 80 80">
  <g id="xd" transform="translate(-2865 508)">
    <rect id="Rectangle_1" data-name="Rectangle 1" width="80" height="80" rx="16" transform="translate(2865 -508)" fill="#470137"/>
    <g id="Outlined_Mnemonics_Logos" transform="translate(2841.846 -538.054)">
      <g id="Xd-2" data-name="Xd" transform="translate(34.961 51.284)">
        <path id="Path_2" data-name="Path 2" d="M64.559,60.487,54.827,76.544,65.207,93.575a.558.558,0,0,1,.065.389c-.032.13-.162.032-.357.065H57.487c-.519,0-.876-.032-1.1-.357-.681-1.362-1.395-2.693-2.076-4.055-.681-1.33-1.427-2.693-2.206-4.087s-1.557-2.79-2.336-4.217H49.7c-.681,1.395-1.427,2.79-2.173,4.185s-1.492,2.79-2.206,4.152c-.746,1.362-1.492,2.757-2.238,4.087-.13.324-.389.357-.746.357H35.2c-.13,0-.227.065-.227-.1a.45.45,0,0,1,.065-.357L45.127,77.1,35.3,60.454c-.1-.13-.13-.26-.065-.324a.376.376,0,0,1,.324-.13h7.364a1.915,1.915,0,0,1,.454.065.92.92,0,0,1,.324.292c.616,1.395,1.33,2.79,2.076,4.185.779,1.395,1.525,2.757,2.336,4.12.779,1.362,1.492,2.725,2.173,4.12h.065c.681-1.427,1.395-2.822,2.109-4.185s1.46-2.725,2.206-4.087,1.46-2.757,2.173-4.087a.552.552,0,0,1,.195-.324.619.619,0,0,1,.422-.065H64.3a.3.3,0,0,1,.357.227c.032.032-.032.162-.1.227Z" transform="translate(-34.961 -57.173)" fill="#ff61f6"/>
        <path id="Path_3" data-name="Path 3" d="M143.955,88.822a16.128,16.128,0,0,1-6.975-1.46,11.31,11.31,0,0,1-4.9-4.412,14.036,14.036,0,0,1-1.784-7.4,13.323,13.323,0,0,1,1.784-6.845,13.471,13.471,0,0,1,5.158-5.028,16.594,16.594,0,0,1,8.207-1.882,5.793,5.793,0,0,1,.681.032c.292.032.616.032,1.006.065V51.646c0-.227.1-.357.324-.357h6.585a.291.291,0,0,1,.324.227V82.464c0,.584.032,1.233.065,1.946.065.681.1,1.33.13,1.882a.527.527,0,0,1-.324.519,24.775,24.775,0,0,1-5.288,1.557A28.616,28.616,0,0,1,143.955,88.822Zm3.179-6.488V68.061a8.292,8.292,0,0,0-.876-.162c-.357-.032-.714-.065-1.071-.065a8,8,0,0,0-3.666.843,7.272,7.272,0,0,0-2.757,2.4,7.191,7.191,0,0,0-1.071,4.12,9.041,9.041,0,0,0,.551,3.341,6.34,6.34,0,0,0,1.46,2.3,5.6,5.6,0,0,0,2.206,1.3,8.491,8.491,0,0,0,2.693.422c.487,0,.941-.032,1.362-.065A2.837,2.837,0,0,0,147.134,82.334Z" transform="translate(-99.37 -51.284)" fill="#ff61f6"/>
      </g>
    </g>
  </g>
</svg>
